<?xml version="1.0" standalone="no"?>
<!DOCTYPE svg PUBLIC "-//W3C//DTD SVG 20010904//EN"
 "http://www.w3.org/TR/2001/REC-SVG-20010904/DTD/svg10.dtd">
<svg version="1.0" xmlns="http://www.w3.org/2000/svg"
 width="198.000000pt" height="206.000000pt" viewBox="0 0 198.000000 206.000000"
 preserveAspectRatio="xMidYMid meet">

<g transform="translate(0.000000,206.000000) scale(0.100000,-0.100000)"
fill="#BD9A52" stroke="none">
<path d="M872 1960 c-314 -40 -588 -240 -726 -531 -71 -149 -89 -242 -83 -429
3 -134 8 -166 32 -240 102 -315 334 -540 650 -632 102 -29 314 -36 426 -13
399 80 692 393 750 800 21 146 -4 324 -65 475 -111 273 -377 495 -665 556 -89
18 -231 24 -319 14z m317 -200 c405 -113 642 -528 530 -931 -74 -266 -299
-478 -569 -535 -36 -7 -108 -14 -160 -14 -276 0 -529 149 -663 391 -58 105
-79 186 -84 319 -7 162 11 251 74 380 40 81 61 109 142 190 103 103 197 161
316 196 132 38 284 39 414 4z"/>
<path d="M722 1197 l-272 -272 73 -73 72 -72 200 200 200 200 200 -200 200
-200 74 71 75 70 -275 275 -274 274 -273 -273z"/>
</g>
</svg>
