<?xml version="1.0" encoding="UTF-8"?>
<!DOCTYPE svg PUBLIC "-//W3C//DTD SVG 1.1//EN" "http://www.w3.org/Graphics/SVG/1.1/DTD/svg11.dtd">
<svg xmlns="http://www.w3.org/2000/svg" version="1.1" width="48px" height="48px" style="shape-rendering:geometricPrecision; text-rendering:geometricPrecision; image-rendering:optimizeQuality; fill-rule:evenodd; clip-rule:evenodd" xmlns:xlink="http://www.w3.org/1999/xlink">
<g><path style="opacity:0.934" fill="#97acab" d="M 24.5,3.5 C 18.1114,10.8906 11.1114,17.5573 3.5,23.5C 3.98033,10.0202 10.9803,3.35352 24.5,3.5 Z"/></g>
<g><path style="opacity:0.978" fill="#8aa2a4" d="M 24.5,3.5 C 28.3785,3.02369 31.7118,4.02369 34.5,6.5C 32.1667,9.16667 29.8333,11.8333 27.5,14.5C 26.1021,12.8912 24.4354,12.0579 22.5,12C 20,14.5 17.5,17 15,19.5C 14.5304,20.5768 14.6971,21.5768 15.5,22.5C 12.1047,25.9015 8.43801,28.9015 4.5,31.5C 3.61197,28.9455 3.27863,26.2788 3.5,23.5C 11.1114,17.5573 18.1114,10.8906 24.5,3.5 Z"/></g>
<g><path style="opacity:0.981" fill="#749399" d="M 34.5,6.5 C 37.1894,7.18936 38.8561,8.85603 39.5,11.5C 39.6495,12.552 39.4828,13.552 39,14.5C 36.5997,16.7293 34.433,19.0626 32.5,21.5C 31.2464,18.9066 29.5798,16.5732 27.5,14.5C 29.8333,11.8333 32.1667,9.16667 34.5,6.5 Z"/></g>
<g><path style="opacity:1" fill="#d7e0cf" d="M 27.5,14.5 C 29.5798,16.5732 31.2464,18.9066 32.5,21.5C 29.9196,23.0156 27.9196,22.3489 26.5,19.5C 24.5,15.5 22.5,15.5 20.5,19.5C 19.5994,21.7271 17.9328,22.7271 15.5,22.5C 14.6971,21.5768 14.5304,20.5768 15,19.5C 17.5,17 20,14.5 22.5,12C 24.4354,12.0579 26.1021,12.8912 27.5,14.5 Z"/></g>
<g><path style="opacity:0.969" fill="#638790" d="M 39.5,11.5 C 41.588,13.3356 42.9213,15.6689 43.5,18.5C 34.8333,26.5 26.5,34.8333 18.5,43.5C 16.1815,43.0075 14.1815,42.0075 12.5,40.5C 15.5,37.8333 18.5,35.1667 21.5,32.5C 22.0768,34.6516 23.2435,34.985 25,33.5C 25.1745,28.6486 25.6745,23.9819 26.5,19.5C 27.9196,22.3489 29.9196,23.0156 32.5,21.5C 34.433,19.0626 36.5997,16.7293 39,14.5C 39.4828,13.552 39.6495,12.552 39.5,11.5 Z"/></g>
<g><path style="opacity:0.985" fill="#77969b" d="M 20.5,19.5 C 21.4849,23.6344 21.8182,27.9677 21.5,32.5C 18.5,35.1667 15.5,37.8333 12.5,40.5C 8.68915,38.564 6.02248,35.564 4.5,31.5C 8.43801,28.9015 12.1047,25.9015 15.5,22.5C 17.9328,22.7271 19.5994,21.7271 20.5,19.5 Z"/></g>
<g><path style="opacity:1" fill="#c7d8c7" d="M 26.5,19.5 C 25.6745,23.9819 25.1745,28.6486 25,33.5C 23.2435,34.985 22.0768,34.6516 21.5,32.5C 21.8182,27.9677 21.4849,23.6344 20.5,19.5C 22.5,15.5 24.5,15.5 26.5,19.5 Z"/></g>
<g><path style="opacity:1" fill="#547c88" d="M 43.5,18.5 C 44.8333,36.5 36.5,44.8333 18.5,43.5C 26.5,34.8333 34.8333,26.5 43.5,18.5 Z"/></g>
</svg>
